<svg xmlns="http://www.w3.org/2000/svg" xmlns:xlink="http://www.w3.org/1999/xlink" zoomAndPan="magnify" preserveAspectRatio="xMidYMid meet" version="1.0" viewBox="-37.5 -37.5 450 450"><defs><filter x="0%" y="0%" width="100%" height="100%" id="ebb1ce08fd"><feColorMatrix values="0 0 0 0 1 0 0 0 0 1 0 0 0 0 1 0 0 0 1 0" color-interpolation-filters="sRGB"/></filter><clipPath id="570a58fe16"><path d="M 4.886719 9.777344 L 370.136719 9.777344 L 370.136719 375 L 4.886719 375 Z M 4.886719 9.777344 " clip-rule="nonzero"/></clipPath><mask id="7a7cefc934"><g filter="url(#ebb1ce08fd)"><rect x="-37.5" width="450" fill="#000000" y="-37.499999" height="449.999989" fill-opacity="0.2"/></g></mask><clipPath id="a38be53295"><rect x="0" width="367" y="0" height="366"/></clipPath></defs><g clip-path="url(#570a58fe16)"><g mask="url(#7a7cefc934)"><g transform="matrix(1, 0, 0, 1, 4, 9)"><g clip-path="url(#a38be53295)"><path fill="#d10b05" d="M 274.800781 92.050781 C 276.292969 93.542969 277.75 95.074219 279.167969 96.640625 C 280.589844 98.207031 281.96875 99.804688 283.308594 101.4375 C 284.648438 103.074219 285.949219 104.738281 287.207031 106.433594 C 288.46875 108.132812 289.683594 109.859375 290.855469 111.617188 C 292.03125 113.375 293.160156 115.160156 294.246094 116.972656 C 295.335938 118.785156 296.375 120.621094 297.371094 122.484375 C 298.367188 124.347656 299.316406 126.234375 300.222656 128.144531 C 301.125 130.054688 301.980469 131.988281 302.789062 133.941406 C 303.597656 135.890625 304.359375 137.863281 305.070312 139.851562 C 305.78125 141.84375 306.445312 143.847656 307.058594 145.871094 C 307.671875 147.890625 308.234375 149.929688 308.75 151.976562 C 309.261719 154.027344 309.726562 156.089844 310.136719 158.160156 C 310.550781 160.234375 310.910156 162.316406 311.21875 164.40625 C 311.53125 166.496094 311.789062 168.59375 311.996094 170.695312 C 312.203125 172.800781 312.359375 174.90625 312.460938 177.015625 C 312.566406 179.125 312.617188 181.238281 312.617188 183.351562 C 312.617188 185.464844 312.566406 187.578125 312.460938 189.6875 C 312.359375 191.796875 312.203125 193.90625 311.996094 196.007812 C 311.789062 198.109375 311.53125 200.207031 311.21875 202.296875 C 310.910156 204.386719 310.550781 206.46875 310.136719 208.542969 C 309.726562 210.613281 309.261719 212.675781 308.75 214.726562 C 308.234375 216.773438 307.671875 218.8125 307.058594 220.832031 C 306.445312 222.855469 305.78125 224.863281 305.070312 226.851562 C 304.359375 228.839844 303.597656 230.8125 302.789062 232.765625 C 301.980469 234.714844 301.125 236.648438 300.222656 238.558594 C 299.316406 240.46875 298.367188 242.355469 297.371094 244.21875 C 296.375 246.082031 295.335938 247.921875 294.246094 249.734375 C 293.160156 251.546875 292.03125 253.328125 290.855469 255.085938 C 289.683594 256.84375 288.46875 258.570312 287.207031 260.269531 C 285.949219 261.964844 284.648438 263.632812 283.308594 265.265625 C 281.96875 266.898438 280.589844 268.496094 279.167969 270.0625 C 277.75 271.628906 276.292969 273.160156 274.800781 274.652344 C 273.304688 276.148438 271.777344 277.605469 270.210938 279.023438 C 268.644531 280.441406 267.042969 281.820312 265.410156 283.164062 C 263.777344 284.503906 262.113281 285.804688 260.414062 287.0625 C 258.71875 288.320312 256.992188 289.535156 255.234375 290.710938 C 253.476562 291.886719 251.691406 293.015625 249.878906 294.101562 C 248.066406 295.1875 246.226562 296.230469 244.363281 297.226562 C 242.5 298.222656 240.613281 299.171875 238.703125 300.074219 C 236.792969 300.976562 234.863281 301.835938 232.910156 302.644531 C 230.957031 303.453125 228.988281 304.210938 226.996094 304.921875 C 225.007812 305.636719 223 306.296875 220.980469 306.910156 C 218.957031 307.523438 216.921875 308.089844 214.871094 308.601562 C 212.820312 309.117188 210.761719 309.578125 208.6875 309.992188 C 206.617188 310.402344 204.535156 310.765625 202.445312 311.074219 C 200.355469 311.382812 198.257812 311.644531 196.152344 311.851562 C 194.050781 312.058594 191.945312 312.210938 189.832031 312.316406 C 187.722656 312.417969 185.613281 312.472656 183.5 312.472656 C 181.386719 312.472656 179.273438 312.417969 177.164062 312.316406 C 175.050781 312.210938 172.945312 312.058594 170.84375 311.851562 C 168.738281 311.644531 166.644531 311.382812 164.550781 311.074219 C 162.460938 310.765625 160.378906 310.402344 158.308594 309.992188 C 156.234375 309.578125 154.175781 309.117188 152.125 308.601562 C 150.074219 308.089844 148.039062 307.523438 146.015625 306.910156 C 143.996094 306.296875 141.988281 305.636719 140 304.921875 C 138.007812 304.210938 136.039062 303.453125 134.085938 302.644531 C 132.132812 301.835938 130.203125 300.976562 128.292969 300.074219 C 126.382812 299.171875 124.496094 298.222656 122.632812 297.226562 C 120.769531 296.230469 118.929688 295.1875 117.117188 294.101562 C 115.304688 293.015625 113.519531 291.886719 111.761719 290.710938 C 110.007812 289.535156 108.277344 288.320312 106.582031 287.0625 C 104.882812 285.804688 103.21875 284.503906 101.585938 283.164062 C 99.953125 281.820312 98.351562 280.441406 96.785156 279.023438 C 95.222656 277.605469 93.691406 276.148438 92.195312 274.652344 C 90.703125 273.160156 89.246094 271.628906 87.828125 270.0625 C 86.40625 268.496094 85.027344 266.898438 83.6875 265.265625 C 82.347656 263.632812 81.046875 261.964844 79.789062 260.269531 C 78.53125 258.570312 77.3125 256.84375 76.140625 255.085938 C 74.964844 253.328125 73.835938 251.546875 72.75 249.734375 C 71.664062 247.921875 70.621094 246.082031 69.625 244.21875 C 68.628906 242.355469 67.679688 240.46875 66.777344 238.558594 C 65.871094 236.648438 65.015625 234.714844 64.207031 232.765625 C 63.398438 230.8125 62.636719 228.839844 61.925781 226.851562 C 61.214844 224.863281 60.550781 222.855469 59.9375 220.832031 C 59.324219 218.8125 58.761719 216.773438 58.25 214.726562 C 57.734375 212.675781 57.273438 210.613281 56.859375 208.542969 C 56.449219 206.46875 56.085938 204.386719 55.777344 202.296875 C 55.464844 200.207031 55.207031 198.109375 55 196.007812 C 54.792969 193.90625 54.636719 191.796875 54.535156 189.6875 C 54.429688 187.578125 54.378906 185.464844 54.378906 183.351562 C 54.378906 181.238281 54.429688 179.125 54.535156 177.015625 C 54.636719 174.90625 54.792969 172.800781 55 170.695312 C 55.207031 168.59375 55.464844 166.496094 55.777344 164.40625 C 56.085938 162.316406 56.449219 160.234375 56.859375 158.160156 C 57.273438 156.089844 57.734375 154.027344 58.25 151.976562 C 58.761719 149.929688 59.324219 147.894531 59.9375 145.871094 C 60.550781 143.847656 61.214844 141.84375 61.925781 139.851562 C 62.636719 137.863281 63.398438 135.890625 64.207031 133.941406 C 65.015625 131.988281 65.871094 130.054688 66.777344 128.144531 C 67.679688 126.234375 68.628906 124.347656 69.625 122.484375 C 70.621094 120.621094 71.664062 118.785156 72.75 116.972656 C 73.835938 115.160156 74.964844 113.375 76.140625 111.617188 C 77.3125 109.859375 78.53125 108.132812 79.789062 106.433594 C 81.046875 104.738281 82.347656 103.074219 83.6875 101.4375 C 85.027344 99.804688 86.40625 98.207031 87.828125 96.640625 C 89.246094 95.074219 90.703125 93.542969 92.195312 92.050781 C 93.691406 90.554688 95.222656 89.101562 96.785156 87.679688 C 98.351562 86.261719 99.953125 84.882812 101.585938 83.542969 C 103.21875 82.199219 104.882812 80.902344 106.582031 79.640625 C 108.277344 78.382812 110.007812 77.167969 111.761719 75.992188 C 113.519531 74.820312 115.304688 73.6875 117.117188 72.601562 C 118.929688 71.515625 120.769531 70.476562 122.632812 69.480469 C 124.496094 68.484375 126.382812 67.53125 128.292969 66.628906 C 130.203125 65.726562 132.132812 64.871094 134.085938 64.0625 C 136.039062 63.253906 138.007812 62.492188 140 61.78125 C 141.988281 61.066406 143.996094 60.40625 146.015625 59.792969 C 148.039062 59.179688 150.074219 58.617188 152.125 58.101562 C 154.175781 57.589844 156.234375 57.125 158.308594 56.714844 C 160.378906 56.300781 162.460938 55.941406 164.550781 55.628906 C 166.644531 55.320312 168.738281 55.0625 170.84375 54.855469 C 172.945312 54.648438 175.050781 54.492188 177.164062 54.386719 C 179.273438 54.285156 181.386719 54.230469 183.5 54.230469 C 185.613281 54.230469 187.722656 54.285156 189.832031 54.386719 C 191.945312 54.492188 194.050781 54.648438 196.152344 54.855469 C 198.257812 55.0625 200.355469 55.320312 202.445312 55.628906 C 204.535156 55.941406 206.617188 56.300781 208.6875 56.714844 C 210.761719 57.125 212.820312 57.589844 214.871094 58.101562 C 216.921875 58.617188 218.957031 59.179688 220.980469 59.792969 C 223 60.40625 225.007812 61.066406 226.996094 61.78125 C 228.988281 62.492188 230.957031 63.253906 232.910156 64.0625 C 234.863281 64.871094 236.792969 65.726562 238.703125 66.628906 C 240.613281 67.53125 242.5 68.484375 244.363281 69.480469 C 246.226562 70.476562 248.066406 71.515625 249.878906 72.601562 C 251.691406 73.6875 253.476562 74.820312 255.234375 75.992188 C 256.992188 77.167969 258.71875 78.382812 260.414062 79.640625 C 262.113281 80.902344 263.777344 82.199219 265.410156 83.542969 C 267.042969 84.882812 268.644531 86.261719 270.210938 87.679688 C 271.777344 89.101562 273.304688 90.554688 274.800781 92.050781 Z M 274.800781 92.050781 " fill-opacity="1" fill-rule="nonzero"/></g></g></g></g><path fill="#d10b05" d="M 288.09375 247.414062 L 71.617188 247.414062 C 71.4375 247.414062 71.285156 247.351562 71.160156 247.226562 C 71.035156 247.097656 70.96875 246.945312 70.96875 246.769531 C 70.96875 246.589844 71.035156 246.4375 71.160156 246.3125 C 71.285156 246.1875 71.4375 246.125 71.617188 246.125 L 288.09375 246.125 C 288.269531 246.125 288.421875 246.1875 288.550781 246.3125 C 288.675781 246.4375 288.738281 246.589844 288.738281 246.769531 C 288.738281 246.945312 288.675781 247.097656 288.550781 247.226562 C 288.421875 247.351562 288.269531 247.414062 288.09375 247.414062 Z M 288.09375 247.414062 " fill-opacity="1" fill-rule="nonzero"/><path fill="#ffffff" d="M 223.300781 105.050781 L 295.457031 105.050781 C 295.640625 105.050781 295.8125 105.085938 295.980469 105.15625 C 296.148438 105.222656 296.296875 105.324219 296.425781 105.449219 C 296.554688 105.578125 296.652344 105.726562 296.722656 105.894531 C 296.789062 106.0625 296.824219 106.234375 296.824219 106.417969 L 296.824219 245.402344 C 296.824219 245.582031 296.789062 245.757812 296.722656 245.925781 C 296.652344 246.09375 296.554688 246.242188 296.425781 246.367188 C 296.296875 246.496094 296.148438 246.59375 295.980469 246.664062 C 295.8125 246.734375 295.640625 246.769531 295.457031 246.769531 L 223.300781 246.769531 C 223.121094 246.769531 222.945312 246.734375 222.777344 246.664062 C 222.609375 246.59375 222.460938 246.496094 222.335938 246.367188 C 222.207031 246.242188 222.109375 246.09375 222.039062 245.925781 C 221.96875 245.757812 221.933594 245.582031 221.933594 245.402344 L 221.933594 106.417969 C 221.933594 106.234375 221.96875 106.0625 222.039062 105.894531 C 222.109375 105.726562 222.207031 105.578125 222.335938 105.449219 C 222.460938 105.324219 222.609375 105.222656 222.777344 105.15625 C 222.945312 105.085938 223.121094 105.050781 223.300781 105.050781 Z M 223.300781 105.050781 " fill-opacity="1" fill-rule="nonzero"/><path fill="#090817" d="M 295.457031 247.414062 L 223.300781 247.414062 C 223.035156 247.414062 222.777344 247.363281 222.53125 247.261719 C 222.285156 247.160156 222.066406 247.011719 221.878906 246.824219 C 221.691406 246.636719 221.542969 246.417969 221.441406 246.171875 C 221.339844 245.925781 221.289062 245.667969 221.289062 245.402344 L 221.289062 106.417969 C 221.289062 106.148438 221.339844 105.894531 221.441406 105.648438 C 221.542969 105.398438 221.691406 105.183594 221.878906 104.992188 C 222.066406 104.804688 222.285156 104.660156 222.53125 104.558594 C 222.777344 104.457031 223.035156 104.40625 223.300781 104.402344 L 295.457031 104.402344 C 295.726562 104.40625 295.980469 104.457031 296.230469 104.558594 C 296.476562 104.660156 296.691406 104.804688 296.882812 104.996094 C 297.070312 105.183594 297.214844 105.398438 297.316406 105.648438 C 297.417969 105.894531 297.46875 106.148438 297.46875 106.417969 L 297.46875 245.402344 C 297.46875 245.667969 297.417969 245.925781 297.316406 246.171875 C 297.214844 246.417969 297.070312 246.636719 296.882812 246.824219 C 296.691406 247.011719 296.476562 247.160156 296.230469 247.261719 C 295.980469 247.363281 295.726562 247.414062 295.457031 247.414062 Z M 223.300781 105.695312 C 223.101562 105.695312 222.933594 105.765625 222.792969 105.90625 C 222.652344 106.046875 222.582031 106.21875 222.578125 106.417969 L 222.578125 245.402344 C 222.582031 245.601562 222.652344 245.773438 222.792969 245.910156 C 222.933594 246.050781 223.101562 246.125 223.300781 246.125 L 295.457031 246.125 C 295.65625 246.121094 295.828125 246.050781 295.96875 245.910156 C 296.109375 245.769531 296.179688 245.601562 296.179688 245.402344 L 296.179688 106.417969 C 296.179688 106.21875 296.109375 106.046875 295.96875 105.90625 C 295.828125 105.765625 295.65625 105.695312 295.457031 105.695312 Z M 223.300781 105.695312 " fill-opacity="1" fill-rule="nonzero"/><path fill="#ffffff" d="M 85.535156 106.21875 L 206.0625 106.21875 C 206.273438 106.21875 206.476562 106.257812 206.667969 106.339844 C 206.863281 106.417969 207.035156 106.535156 207.1875 106.683594 C 207.335938 106.832031 207.449219 107.003906 207.53125 107.199219 C 207.613281 107.394531 207.652344 107.597656 207.652344 107.808594 L 207.652344 212.429688 C 207.652344 212.640625 207.613281 212.84375 207.53125 213.035156 C 207.449219 213.230469 207.335938 213.402344 207.1875 213.554688 C 207.035156 213.703125 206.863281 213.816406 206.667969 213.898438 C 206.476562 213.980469 206.273438 214.019531 206.0625 214.019531 L 85.535156 214.019531 C 85.324219 214.019531 85.121094 213.980469 84.925781 213.898438 C 84.734375 213.816406 84.5625 213.703125 84.410156 213.554688 C 84.261719 213.402344 84.148438 213.230469 84.066406 213.035156 C 83.984375 212.84375 83.945312 212.640625 83.945312 212.429688 L 83.945312 107.808594 C 83.945312 107.597656 83.984375 107.394531 84.066406 107.199219 C 84.148438 107.003906 84.261719 106.832031 84.410156 106.683594 C 84.5625 106.535156 84.734375 106.417969 84.925781 106.339844 C 85.121094 106.257812 85.324219 106.21875 85.535156 106.21875 Z M 85.535156 106.21875 " fill-opacity="1" fill-rule="nonzero"/><path fill="#090817" d="M 206.058594 214.664062 L 85.535156 214.664062 C 85.238281 214.664062 84.953125 214.605469 84.679688 214.492188 C 84.40625 214.378906 84.164062 214.21875 83.957031 214.007812 C 83.746094 213.800781 83.585938 213.558594 83.46875 213.285156 C 83.355469 213.011719 83.300781 212.726562 83.300781 212.429688 L 83.300781 107.808594 C 83.300781 107.511719 83.355469 107.226562 83.46875 106.953125 C 83.585938 106.679688 83.746094 106.4375 83.957031 106.226562 C 84.164062 106.019531 84.40625 105.855469 84.679688 105.742188 C 84.953125 105.628906 85.238281 105.570312 85.535156 105.570312 L 206.058594 105.570312 C 206.355469 105.570312 206.640625 105.628906 206.914062 105.742188 C 207.191406 105.855469 207.429688 106.019531 207.640625 106.226562 C 207.851562 106.4375 208.011719 106.679688 208.125 106.953125 C 208.238281 107.226562 208.296875 107.511719 208.296875 107.808594 L 208.296875 212.429688 C 208.296875 212.726562 208.238281 213.011719 208.125 213.285156 C 208.011719 213.558594 207.851562 213.800781 207.640625 214.007812 C 207.429688 214.21875 207.191406 214.378906 206.914062 214.492188 C 206.640625 214.609375 206.355469 214.664062 206.058594 214.664062 Z M 85.535156 106.863281 C 85.273438 106.863281 85.050781 106.957031 84.867188 107.140625 C 84.683594 107.324219 84.589844 107.546875 84.589844 107.808594 L 84.589844 212.429688 C 84.589844 212.691406 84.683594 212.914062 84.867188 213.097656 C 85.050781 213.28125 85.273438 213.375 85.535156 213.375 L 206.058594 213.375 C 206.320312 213.375 206.542969 213.28125 206.726562 213.097656 C 206.914062 212.914062 207.003906 212.691406 207.003906 212.429688 L 207.003906 107.808594 C 207.003906 107.546875 206.914062 107.324219 206.730469 107.140625 C 206.542969 106.957031 206.320312 106.863281 206.058594 106.863281 Z M 85.535156 106.863281 " fill-opacity="1" fill-rule="nonzero"/><path fill="#d10b05" d="M 202.648438 209.984375 L 88.949219 209.984375 C 88.652344 209.984375 88.367188 209.925781 88.09375 209.8125 C 87.820312 209.699219 87.578125 209.539062 87.367188 209.328125 C 87.160156 209.117188 86.996094 208.875 86.882812 208.601562 C 86.769531 208.328125 86.714844 208.042969 86.710938 207.746094 L 86.710938 112.492188 C 86.714844 112.195312 86.769531 111.910156 86.882812 111.636719 C 86.996094 111.363281 87.160156 111.121094 87.367188 110.910156 C 87.578125 110.699219 87.820312 110.539062 88.09375 110.425781 C 88.367188 110.3125 88.652344 110.253906 88.949219 110.253906 L 202.648438 110.253906 C 202.945312 110.253906 203.230469 110.3125 203.503906 110.425781 C 203.777344 110.539062 204.019531 110.699219 204.226562 110.910156 C 204.4375 111.121094 204.597656 111.363281 204.714844 111.636719 C 204.828125 111.910156 204.882812 112.195312 204.882812 112.492188 L 204.882812 207.746094 C 204.882812 208.042969 204.828125 208.328125 204.714844 208.601562 C 204.597656 208.875 204.4375 209.117188 204.226562 209.328125 C 204.019531 209.539062 203.777344 209.699219 203.503906 209.8125 C 203.230469 209.925781 202.945312 209.984375 202.648438 209.984375 Z M 88.949219 111.542969 C 88.6875 111.542969 88.464844 111.636719 88.28125 111.820312 C 88.097656 112.003906 88.003906 112.226562 88.003906 112.488281 L 88.003906 207.746094 C 88.003906 208.007812 88.097656 208.230469 88.28125 208.414062 C 88.464844 208.601562 88.6875 208.691406 88.949219 208.691406 L 202.648438 208.691406 C 202.90625 208.691406 203.132812 208.601562 203.316406 208.414062 C 203.5 208.230469 203.59375 208.007812 203.59375 207.746094 L 203.59375 112.492188 C 203.59375 112.230469 203.5 112.007812 203.316406 111.824219 C 203.132812 111.636719 202.90625 111.546875 202.648438 111.546875 Z M 88.949219 111.542969 " fill-opacity="1" fill-rule="nonzero"/><path fill="#d10b05" d="M 289.90625 224.542969 L 228.851562 224.542969 C 228.625 224.542969 228.410156 224.5 228.203125 224.414062 C 227.992188 224.328125 227.808594 224.203125 227.648438 224.042969 C 227.488281 223.882812 227.367188 223.699219 227.28125 223.492188 C 227.191406 223.285156 227.148438 223.066406 227.148438 222.839844 L 227.148438 111.957031 C 227.148438 111.730469 227.191406 111.511719 227.28125 111.304688 C 227.367188 111.097656 227.488281 110.910156 227.648438 110.753906 C 227.808594 110.59375 227.992188 110.46875 228.203125 110.382812 C 228.410156 110.296875 228.625 110.253906 228.851562 110.253906 L 289.90625 110.253906 C 290.132812 110.253906 290.351562 110.296875 290.558594 110.382812 C 290.765625 110.46875 290.949219 110.59375 291.109375 110.753906 C 291.269531 110.910156 291.394531 111.097656 291.480469 111.304688 C 291.566406 111.511719 291.609375 111.730469 291.609375 111.957031 L 291.609375 222.839844 C 291.609375 223.066406 291.566406 223.285156 291.480469 223.492188 C 291.394531 223.699219 291.269531 223.882812 291.109375 224.042969 C 290.949219 224.203125 290.765625 224.328125 290.558594 224.414062 C 290.347656 224.5 290.132812 224.542969 289.90625 224.542969 Z M 228.851562 111.542969 C 228.738281 111.542969 228.640625 111.585938 228.5625 111.664062 C 228.480469 111.746094 228.441406 111.84375 228.441406 111.957031 L 228.441406 222.839844 C 228.441406 222.953125 228.480469 223.050781 228.5625 223.132812 C 228.640625 223.210938 228.738281 223.25 228.851562 223.25 L 289.90625 223.25 C 290.019531 223.25 290.117188 223.210938 290.199219 223.132812 C 290.277344 223.050781 290.316406 222.953125 290.316406 222.839844 L 290.316406 111.957031 C 290.316406 111.84375 290.277344 111.746094 290.199219 111.664062 C 290.117188 111.585938 290.019531 111.542969 289.90625 111.542969 Z M 228.851562 111.542969 " fill-opacity="1" fill-rule="nonzero"/><path fill="#d10b05" d="M 289.90625 242.132812 L 228.851562 242.132812 C 228.625 242.132812 228.410156 242.089844 228.203125 242 C 227.992188 241.914062 227.808594 241.792969 227.648438 241.632812 C 227.488281 241.472656 227.367188 241.289062 227.28125 241.082031 C 227.191406 240.871094 227.148438 240.65625 227.148438 240.429688 L 227.148438 229.871094 C 227.148438 229.644531 227.191406 229.429688 227.28125 229.21875 C 227.367188 229.011719 227.488281 228.828125 227.648438 228.667969 C 227.808594 228.507812 227.992188 228.386719 228.203125 228.300781 C 228.410156 228.210938 228.625 228.167969 228.851562 228.167969 L 289.90625 228.167969 C 290.132812 228.167969 290.347656 228.210938 290.558594 228.300781 C 290.765625 228.386719 290.949219 228.507812 291.109375 228.667969 C 291.269531 228.828125 291.394531 229.011719 291.480469 229.21875 C 291.566406 229.429688 291.609375 229.644531 291.609375 229.871094 L 291.609375 240.429688 C 291.609375 240.65625 291.566406 240.871094 291.480469 241.082031 C 291.394531 241.289062 291.269531 241.472656 291.109375 241.632812 C 290.949219 241.792969 290.765625 241.914062 290.558594 242 C 290.347656 242.089844 290.132812 242.132812 289.90625 242.132812 Z M 228.851562 229.460938 C 228.738281 229.460938 228.640625 229.5 228.5625 229.582031 C 228.480469 229.660156 228.441406 229.757812 228.441406 229.871094 L 228.441406 240.429688 C 228.441406 240.542969 228.480469 240.640625 228.5625 240.71875 C 228.640625 240.800781 228.738281 240.839844 228.851562 240.839844 L 289.90625 240.839844 C 290.019531 240.839844 290.117188 240.800781 290.199219 240.71875 C 290.277344 240.640625 290.316406 240.542969 290.316406 240.429688 L 290.316406 229.871094 C 290.316406 229.757812 290.277344 229.660156 290.199219 229.582031 C 290.117188 229.5 290.019531 229.460938 289.90625 229.460938 Z M 228.851562 229.460938 " fill-opacity="1" fill-rule="nonzero"/><path fill="#d10b05" d="M 285.074219 148.4375 L 287.761719 148.4375 C 287.976562 148.4375 288.160156 148.511719 288.316406 148.664062 C 288.46875 148.820312 288.542969 149.003906 288.542969 149.21875 L 288.542969 179.425781 C 288.542969 179.640625 288.46875 179.824219 288.316406 179.980469 C 288.160156 180.132812 287.976562 180.210938 287.761719 180.210938 L 285.074219 180.210938 C 284.855469 180.210938 284.671875 180.132812 284.519531 179.980469 C 284.367188 179.824219 284.289062 179.640625 284.289062 179.425781 L 284.289062 149.21875 C 284.289062 149.003906 284.367188 148.820312 284.519531 148.664062 C 284.671875 148.511719 284.855469 148.4375 285.074219 148.4375 Z M 285.074219 148.4375 " fill-opacity="1" fill-rule="nonzero"/><path fill="#ffffff" d="M 75.105469 72.363281 L 294.378906 72.363281 C 294.703125 72.363281 295.015625 72.425781 295.316406 72.546875 C 295.613281 72.671875 295.878906 72.847656 296.109375 73.078125 C 296.339844 73.308594 296.515625 73.570312 296.640625 73.871094 C 296.761719 74.171875 296.824219 74.484375 296.824219 74.808594 L 296.824219 96.703125 C 296.824219 97.027344 296.761719 97.339844 296.640625 97.636719 C 296.515625 97.9375 296.339844 98.203125 296.109375 98.429688 C 295.878906 98.660156 295.613281 98.835938 295.316406 98.960938 C 295.015625 99.085938 294.703125 99.148438 294.378906 99.148438 L 75.105469 99.148438 C 74.78125 99.148438 74.46875 99.085938 74.171875 98.960938 C 73.871094 98.835938 73.605469 98.660156 73.378906 98.429688 C 73.148438 98.203125 72.972656 97.9375 72.847656 97.636719 C 72.722656 97.339844 72.660156 97.027344 72.660156 96.703125 L 72.660156 74.808594 C 72.660156 74.484375 72.722656 74.171875 72.847656 73.871094 C 72.972656 73.570312 73.148438 73.308594 73.378906 73.078125 C 73.605469 72.847656 73.871094 72.671875 74.171875 72.546875 C 74.46875 72.425781 74.78125 72.363281 75.105469 72.363281 Z M 75.105469 72.363281 " fill-opacity="1" fill-rule="nonzero"/><path fill="#090817" d="M 294.378906 99.792969 L 75.105469 99.792969 C 74.699219 99.792969 74.304688 99.714844 73.925781 99.558594 C 73.546875 99.398438 73.210938 99.175781 72.921875 98.886719 C 72.632812 98.597656 72.410156 98.261719 72.253906 97.886719 C 72.097656 97.507812 72.015625 97.113281 72.015625 96.703125 L 72.015625 74.808594 C 72.015625 74.398438 72.097656 74.003906 72.253906 73.625 C 72.410156 73.246094 72.632812 72.914062 72.921875 72.621094 C 73.210938 72.332031 73.546875 72.109375 73.925781 71.953125 C 74.304688 71.796875 74.699219 71.71875 75.105469 71.71875 L 294.378906 71.71875 C 294.789062 71.71875 295.183594 71.796875 295.5625 71.953125 C 295.941406 72.109375 296.277344 72.332031 296.566406 72.621094 C 296.855469 72.910156 297.078125 73.246094 297.238281 73.625 C 297.394531 74.003906 297.472656 74.398438 297.472656 74.808594 L 297.472656 96.703125 C 297.472656 97.113281 297.394531 97.507812 297.238281 97.886719 C 297.078125 98.265625 296.855469 98.597656 296.566406 98.886719 C 296.277344 99.179688 295.941406 99.402344 295.5625 99.558594 C 295.183594 99.714844 294.789062 99.792969 294.378906 99.792969 Z M 75.105469 73.007812 C 74.867188 73.007812 74.640625 73.054688 74.417969 73.144531 C 74.199219 73.238281 74.003906 73.367188 73.835938 73.535156 C 73.667969 73.703125 73.535156 73.898438 73.445312 74.117188 C 73.355469 74.339844 73.308594 74.570312 73.308594 74.808594 L 73.308594 96.703125 C 73.308594 96.941406 73.355469 97.171875 73.445312 97.390625 C 73.535156 97.613281 73.667969 97.804688 73.835938 97.972656 C 74.003906 98.144531 74.199219 98.273438 74.417969 98.363281 C 74.640625 98.457031 74.867188 98.5 75.105469 98.503906 L 294.378906 98.503906 C 294.617188 98.5 294.847656 98.457031 295.070312 98.363281 C 295.289062 98.273438 295.484375 98.144531 295.652344 97.972656 C 295.820312 97.804688 295.949219 97.613281 296.042969 97.390625 C 296.132812 97.171875 296.179688 96.941406 296.179688 96.703125 L 296.179688 74.808594 C 296.179688 74.570312 296.132812 74.339844 296.042969 74.117188 C 295.949219 73.898438 295.820312 73.703125 295.652344 73.535156 C 295.484375 73.367188 295.289062 73.238281 295.070312 73.144531 C 294.847656 73.054688 294.617188 73.007812 294.378906 73.007812 Z M 75.105469 73.007812 " fill-opacity="1" fill-rule="nonzero"/><path fill="#d10b05" d="M 90.582031 72.363281 L 107.074219 72.363281 L 107.074219 99.148438 L 90.582031 99.148438 Z M 90.582031 72.363281 " fill-opacity="1" fill-rule="nonzero"/><path fill="#d10b05" d="M 124.570312 72.363281 L 141.058594 72.363281 L 141.058594 99.148438 L 124.570312 99.148438 Z M 124.570312 72.363281 " fill-opacity="1" fill-rule="nonzero"/><path fill="#d10b05" d="M 158.554688 72.363281 L 175.046875 72.363281 L 175.046875 99.148438 L 158.554688 99.148438 Z M 158.554688 72.363281 " fill-opacity="1" fill-rule="nonzero"/><path fill="#d10b05" d="M 192.542969 72.363281 L 209.03125 72.363281 L 209.03125 99.148438 L 192.542969 99.148438 Z M 192.542969 72.363281 " fill-opacity="1" fill-rule="nonzero"/><path fill="#d10b05" d="M 226.527344 72.363281 L 243.019531 72.363281 L 243.019531 99.148438 L 226.527344 99.148438 Z M 226.527344 72.363281 " fill-opacity="1" fill-rule="nonzero"/><path fill="#d10b05" d="M 260.515625 72.363281 L 277.003906 72.363281 L 277.003906 99.148438 L 260.515625 99.148438 Z M 260.515625 72.363281 " fill-opacity="1" fill-rule="nonzero"/><path fill="#d10b05" d="M 60.332031 131.289062 L 180.652344 131.289062 C 181.148438 131.289062 181.644531 131.335938 182.132812 131.433594 C 182.617188 131.53125 183.09375 131.671875 183.550781 131.863281 C 184.011719 132.054688 184.449219 132.289062 184.863281 132.5625 C 185.277344 132.839844 185.65625 133.15625 186.011719 133.507812 C 186.363281 133.859375 186.675781 134.242188 186.953125 134.65625 C 187.226562 135.066406 187.460938 135.503906 187.652344 135.964844 C 187.84375 136.425781 187.984375 136.898438 188.082031 137.386719 C 188.179688 137.875 188.230469 138.367188 188.230469 138.863281 L 188.230469 176.265625 C 188.230469 176.761719 188.179688 177.253906 188.082031 177.742188 C 187.984375 178.230469 187.84375 178.703125 187.652344 179.164062 C 187.460938 179.625 187.226562 180.058594 186.953125 180.472656 C 186.675781 180.886719 186.363281 181.269531 186.011719 181.621094 C 185.65625 181.972656 185.277344 182.289062 184.863281 182.5625 C 184.449219 182.839844 184.011719 183.074219 183.550781 183.265625 C 183.09375 183.453125 182.617188 183.597656 182.128906 183.695312 C 181.644531 183.792969 181.148438 183.839844 180.652344 183.839844 L 60.332031 183.839844 C 59.835938 183.839844 59.34375 183.792969 58.855469 183.695312 C 58.367188 183.597656 57.894531 183.453125 57.433594 183.265625 C 56.972656 183.074219 56.539062 182.839844 56.125 182.5625 C 55.710938 182.289062 55.328125 181.972656 54.976562 181.621094 C 54.625 181.269531 54.308594 180.886719 54.035156 180.472656 C 53.757812 180.058594 53.523438 179.625 53.332031 179.164062 C 53.144531 178.703125 53 178.230469 52.902344 177.742188 C 52.804688 177.253906 52.757812 176.761719 52.757812 176.265625 L 52.757812 138.863281 C 52.757812 138.367188 52.804688 137.875 52.902344 137.386719 C 53 136.898438 53.144531 136.425781 53.332031 135.964844 C 53.523438 135.503906 53.757812 135.066406 54.035156 134.65625 C 54.308594 134.242188 54.625 133.859375 54.976562 133.507812 C 55.328125 133.15625 55.710938 132.839844 56.125 132.5625 C 56.539062 132.289062 56.972656 132.054688 57.433594 131.863281 C 57.894531 131.671875 58.367188 131.53125 58.855469 131.433594 C 59.34375 131.335938 59.835938 131.289062 60.332031 131.289062 Z M 60.332031 131.289062 " fill-opacity="1" fill-rule="nonzero"/><path fill="#ffffff" d="M 91.65625 144.375 C 90.730469 143.4375 89.644531 142.757812 88.394531 142.34375 C 87.148438 141.925781 85.871094 141.8125 84.566406 142.007812 C 78.984375 142.070312 74.636719 146.589844 72.992188 151.839844 C 72.066406 155.128906 71.625 158.480469 71.65625 161.898438 C 71.601562 164.769531 71.894531 167.875 73.5 170.347656 C 76.824219 175.460938 83.941406 175.039062 88.199219 171.382812 C 92.914062 167.335938 94.515625 159.78125 94.800781 153.851562 C 94.96875 150.386719 94.226562 146.863281 91.65625 144.375 Z M 89.964844 158.472656 C 89.015625 163.21875 87.019531 169.605469 81.25 170.03125 C 74.902344 170.5 75.617188 162.035156 76.035156 157.898438 C 76.476562 153.519531 78.417969 147.308594 83.121094 146.296875 C 83.765625 146.507812 84.390625 146.464844 85 146.167969 C 85.554688 146.292969 86.105469 146.292969 86.65625 146.15625 C 87.507812 146.417969 88.25 146.863281 88.878906 147.492188 C 89.511719 148.121094 89.960938 148.859375 90.230469 149.707031 C 91.191406 152.492188 90.527344 155.675781 89.96875 158.472656 Z M 89.964844 158.472656 " fill-opacity="1" fill-rule="nonzero"/><path fill="#ffffff" d="M 121.078125 148.386719 C 120.003906 143.078125 113.730469 139.695312 107.730469 142.6875 C 106.675781 141.730469 104.535156 141.929688 104.171875 143.785156 C 103.5 147.230469 99.191406 169.261719 98.621094 172.15625 C 98.105469 174.785156 102.210938 175.484375 102.726562 172.851562 C 103.742188 167.65625 104.757812 162.457031 105.777344 157.261719 C 109.390625 158.253906 113.269531 158.808594 116.730469 157.003906 C 119.9375 155.324219 121.808594 151.996094 121.078125 148.386719 Z M 106.574219 153.179688 L 107.652344 147.664062 C 111.953125 143.8125 117.183594 146.273438 117.078125 150.070312 C 116.9375 155.1875 110 154.078125 106.574219 153.179688 Z M 106.574219 153.179688 " fill-opacity="1" fill-rule="nonzero"/><path fill="#ffffff" d="M 140.445312 140.921875 L 130.21875 141.570312 C 129.929688 141.582031 129.660156 141.652344 129.40625 141.785156 C 129.148438 141.921875 128.9375 142.101562 128.761719 142.332031 C 128.589844 142.5625 128.476562 142.816406 128.417969 143.097656 C 128.359375 143.378906 128.363281 143.660156 128.433594 143.9375 C 128.425781 143.957031 128.421875 143.972656 128.414062 143.992188 C 126.078125 151.6875 124.320312 159.808594 123.976562 167.863281 C 123.847656 170.867188 124.78125 173.703125 127.835938 174.777344 C 131.28125 175.992188 134.25 173.808594 137.582031 173.40625 C 140.238281 173.089844 139.867188 168.941406 137.195312 169.261719 C 134.855469 169.546875 131.675781 171.644531 129.371094 170.914062 C 126.953125 170.144531 128.390625 164.707031 128.621094 162.855469 C 128.839844 161.105469 129.109375 159.359375 129.417969 157.625 L 138.820312 156.625 C 141.480469 156.339844 141.109375 152.195312 138.433594 152.480469 L 130.261719 153.347656 C 130.835938 150.746094 131.496094 148.167969 132.246094 145.609375 L 140.828125 145.066406 C 143.503906 144.898438 143.121094 140.753906 140.445312 140.921875 Z M 140.445312 140.921875 " fill-opacity="1" fill-rule="nonzero"/><path fill="#ffffff" d="M 165.878906 143.5625 C 164.058594 149.378906 162.429688 155.246094 160.984375 161.15625 C 159.390625 155.273438 157.796875 149.386719 156.199219 143.503906 C 156.109375 143.089844 155.898438 142.75 155.570312 142.488281 C 155.238281 142.222656 154.859375 142.09375 154.4375 142.101562 C 154.285156 142.023438 154.125 141.964844 153.957031 141.925781 C 153.792969 141.882812 153.621094 141.863281 153.449219 141.859375 C 153.277344 141.855469 153.109375 141.871094 152.941406 141.90625 C 152.773438 141.941406 152.609375 141.996094 152.453125 142.066406 C 152.296875 142.136719 152.152344 142.226562 152.015625 142.332031 C 151.878906 142.433594 151.757812 142.550781 151.644531 142.683594 C 151.535156 142.816406 151.441406 142.957031 151.363281 143.109375 C 151.285156 143.261719 151.226562 143.421875 151.183594 143.589844 C 149.171875 152.957031 146.496094 162.128906 143.160156 171.109375 C 142.203125 173.679688 146.257812 175.507812 147.226562 172.914062 C 149.804688 165.996094 152.007812 158.957031 153.839844 151.804688 C 155.582031 158.234375 157.324219 164.664062 159.070312 171.09375 C 159.660156 173.277344 162.980469 172.652344 163.390625 170.71875 C 165.277344 161.808594 167.585938 152.996094 170.308594 144.277344 C 171.121094 141.648438 166.695312 140.953125 165.878906 143.5625 Z M 165.878906 143.5625 " fill-opacity="1" fill-rule="nonzero"/><path fill="#ffffff" d="M 138.074219 125.378906 C 135.191406 127.039062 132.496094 128.960938 129.988281 131.152344 L 147.5625 131.289062 C 147.5625 131.289062 144.804688 135.019531 142.292969 136.425781 C 139.785156 137.832031 143.199219 140.546875 149.226562 137.734375 C 156.871094 134.164062 159.285156 132.023438 164.496094 131.710938 C 169.308594 131.421875 173.066406 134.796875 176.25 137.632812 C 208.328125 166.238281 210.753906 166.585938 213.921875 174.402344 C 217.238281 182.589844 217.339844 189.101562 217.535156 202.128906 C 217.738281 215.789062 216.070312 229.214844 212.53125 242.414062 L 236.808594 262.648438 C 244.1875 235.875 245.289062 214.222656 244.960938 199.71875 C 244.683594 187.476562 243.429688 182.066406 242.347656 178.441406 C 235.738281 156.257812 218.644531 143.949219 209.25 137.183594 C 193.171875 125.605469 171.523438 116.644531 156.207031 119.101562 C 149.820312 120.207031 143.777344 122.300781 138.074219 125.378906 Z M 138.074219 125.378906 " fill-opacity="1" fill-rule="nonzero"/><path fill="#090817" d="M 236.808594 263.292969 C 236.457031 263.292969 238.078125 264.542969 212.113281 242.90625 C 211.90625 242.730469 211.835938 242.507812 211.90625 242.242188 C 215.429688 229.105469 217.089844 215.738281 216.890625 202.136719 C 216.691406 189.207031 216.59375 182.722656 213.320312 174.644531 C 210.222656 166.992188 207.96875 166.785156 175.816406 138.113281 C 172.628906 135.273438 169.046875 132.085938 164.53125 132.355469 C 159.46875 132.65625 157.203125 134.722656 149.496094 138.320312 C 145.289062 140.285156 141.796875 139.777344 140.980469 138.183594 C 140.660156 137.550781 140.722656 136.570312 141.976562 135.863281 C 143.546875 134.984375 145.253906 133.101562 146.230469 131.925781 L 129.980469 131.800781 C 129.683594 131.800781 129.484375 131.660156 129.378906 131.382812 C 129.277344 131.101562 129.335938 130.867188 129.558594 130.671875 C 132.097656 128.453125 134.828125 126.503906 137.75 124.820312 C 143.519531 121.691406 149.636719 119.574219 156.101562 118.464844 C 173.109375 115.738281 195.714844 126.644531 209.625 136.660156 C 218.941406 143.375 236.292969 155.863281 242.964844 178.261719 C 244.117188 182.125 245.332031 187.695312 245.605469 199.703125 C 246.070312 220.21875 243.320312 241.453125 237.429688 262.820312 C 237.390625 262.960938 237.3125 263.074219 237.195312 263.160156 C 237.082031 263.25 236.953125 263.292969 236.808594 263.292969 Z M 213.257812 242.179688 L 236.449219 261.511719 C 242.121094 240.59375 244.769531 219.8125 244.3125 199.734375 C 244.046875 187.878906 242.859375 182.410156 241.730469 178.628906 C 235.183594 156.65625 218.066406 144.328125 208.871094 137.707031 C 193.949219 126.960938 171.910156 117.234375 156.308594 119.738281 C 150.003906 120.839844 144.03125 122.90625 138.394531 125.9375 C 136.050781 127.289062 133.832031 128.816406 131.738281 130.523438 L 147.5625 130.644531 C 147.828125 130.644531 148.019531 130.765625 148.136719 131 C 148.257812 131.234375 148.238281 131.460938 148.082031 131.671875 C 147.964844 131.828125 145.210938 135.535156 142.609375 136.992188 C 142.507812 137.050781 142.003906 137.347656 142.132812 137.59375 C 142.457031 138.222656 144.957031 139.015625 148.953125 137.148438 C 156.613281 133.574219 159.082031 131.390625 164.457031 131.066406 C 169.519531 130.753906 173.46875 134.289062 176.640625 137.121094 C 208.617188 165.636719 211.285156 166.175781 214.519531 174.160156 C 217.882812 182.460938 217.984375 189.027344 218.183594 202.109375 C 218.382812 215.691406 216.742188 229.050781 213.257812 242.179688 Z M 138.074219 125.378906 Z M 138.074219 125.378906 " fill-opacity="1" fill-rule="nonzero"/><path fill="#d10b05" d="M 211.0625 186.03125 L 245.011719 184.042969 C 249.59375 211.972656 250.316406 240 247.179688 268.128906 L 207.4375 251.25 L 205.480469 220.511719 Z M 211.0625 186.03125 " fill-opacity="1" fill-rule="nonzero"/><path fill="#ffffff" d="M 239.785156 236.832031 C 237.585938 235.171875 235.015625 234.289062 231.328125 233.605469 C 230.535156 233.457031 229.792969 233.175781 229.101562 232.769531 C 228.40625 232.359375 227.804688 231.847656 227.289062 231.226562 C 226.777344 230.605469 226.382812 229.917969 226.113281 229.160156 C 225.839844 228.402344 225.703125 227.621094 225.707031 226.816406 L 225.707031 215.585938 L 206.417969 215.585938 L 206.417969 225.078125 C 206.417969 225.460938 206.378906 225.84375 206.304688 226.222656 C 206.234375 226.597656 206.125 226.964844 205.980469 227.320312 C 205.835938 227.679688 205.660156 228.019531 205.453125 228.339844 C 205.242188 228.664062 205.003906 228.964844 204.738281 229.242188 C 204.472656 229.519531 204.183594 229.769531 203.867188 229.988281 C 203.554688 230.210938 203.222656 230.402344 202.871094 230.558594 C 202.519531 230.71875 202.160156 230.839844 201.785156 230.929688 C 201.410156 231.019531 201.03125 231.070312 200.648438 231.085938 C 192.046875 231.476562 183.199219 233.34375 177.257812 238.667969 C 171.597656 243.734375 170.605469 250.109375 169.796875 259.941406 C 168.230469 279.445312 168.367188 298.941406 170.207031 318.421875 L 249.464844 317.96875 C 239.027344 268.390625 253.664062 247.316406 239.785156 236.832031 Z M 239.785156 236.832031 " fill-opacity="1" fill-rule="nonzero"/><path fill="#090817" d="M 170.207031 319.066406 C 170.039062 319.066406 169.894531 319.011719 169.769531 318.898438 C 169.644531 318.789062 169.574219 318.648438 169.558594 318.480469 C 167.730469 298.960938 167.59375 279.429688 169.152344 259.890625 C 169.949219 250.214844 170.914062 243.480469 176.824219 238.1875 C 182.027344 233.527344 190.03125 230.921875 200.617188 230.441406 C 200.957031 230.425781 201.296875 230.378906 201.632812 230.300781 C 201.964844 230.222656 202.289062 230.109375 202.601562 229.96875 C 202.914062 229.828125 203.210938 229.660156 203.492188 229.460938 C 203.773438 229.261719 204.035156 229.039062 204.269531 228.792969 C 204.507812 228.542969 204.722656 228.277344 204.90625 227.988281 C 205.09375 227.699219 205.25 227.394531 205.378906 227.078125 C 205.507812 226.757812 205.605469 226.429688 205.671875 226.09375 C 205.738281 225.757812 205.769531 225.417969 205.769531 225.074219 L 205.769531 215.582031 C 205.769531 215.40625 205.832031 215.253906 205.957031 215.125 C 206.085938 215 206.238281 214.9375 206.414062 214.9375 L 225.703125 214.9375 C 225.882812 214.9375 226.035156 215 226.160156 215.125 C 226.285156 215.253906 226.347656 215.40625 226.347656 215.582031 L 226.347656 226.8125 C 226.347656 227.542969 226.46875 228.25 226.714844 228.9375 C 226.960938 229.625 227.316406 230.25 227.78125 230.8125 C 228.246094 231.375 228.792969 231.839844 229.421875 232.210938 C 230.050781 232.582031 230.722656 232.835938 231.441406 232.96875 C 235.484375 233.714844 238.011719 234.683594 240.171875 236.316406 C 254.394531 247.0625 239.691406 268.417969 250.09375 317.835938 C 250.113281 317.929688 250.113281 318.023438 250.089844 318.117188 C 250.066406 318.210938 250.023438 318.296875 249.964844 318.375 C 249.902344 318.449219 249.828125 318.507812 249.742188 318.550781 C 249.65625 318.589844 249.5625 318.613281 249.464844 318.613281 C 164.265625 319.101562 170.515625 319.066406 170.207031 319.066406 Z M 207.0625 216.234375 L 207.0625 225.078125 C 207.0625 225.503906 207.023438 225.925781 206.941406 226.34375 C 206.859375 226.761719 206.742188 227.167969 206.582031 227.5625 C 206.421875 227.957031 206.226562 228.335938 205.996094 228.691406 C 205.765625 229.050781 205.503906 229.382812 205.207031 229.6875 C 204.914062 229.996094 204.589844 230.273438 204.242188 230.519531 C 203.894531 230.765625 203.527344 230.972656 203.140625 231.148438 C 202.75 231.324219 202.351562 231.460938 201.9375 231.558594 C 201.519531 231.65625 201.101562 231.714844 200.675781 231.734375 C 190.398438 232.195312 182.664062 234.691406 177.6875 239.148438 C 172.132812 244.121094 171.210938 250.632812 170.441406 259.996094 C 168.902344 279.265625 169.023438 298.527344 170.796875 317.777344 L 248.671875 317.328125 C 246.269531 305.796875 244.964844 294.144531 244.757812 282.367188 C 244.375 257.851562 249.0625 244.652344 239.394531 237.347656 C 237.410156 235.847656 235.039062 234.949219 231.210938 234.242188 C 230.78125 234.160156 230.359375 234.042969 229.953125 233.890625 C 229.542969 233.738281 229.148438 233.550781 228.773438 233.328125 C 228.398438 233.105469 228.042969 232.855469 227.710938 232.570312 C 227.375 232.289062 227.070312 231.976562 226.792969 231.640625 C 226.515625 231.304688 226.265625 230.945312 226.050781 230.566406 C 225.832031 230.1875 225.652344 229.792969 225.503906 229.378906 C 225.355469 228.96875 225.246094 228.546875 225.171875 228.117188 C 225.097656 227.6875 225.058594 227.253906 225.058594 226.816406 L 225.058594 216.234375 Z M 207.0625 216.234375 " fill-opacity="1" fill-rule="nonzero"/><path fill="#d10b05" d="M 200.316406 230.457031 C 194.785156 230.105469 189.308594 230.507812 183.890625 231.660156 C 173.617188 233.863281 168.554688 237.835938 157.972656 242.359375 C 150.332031 245.613281 142.449219 248.074219 134.3125 249.746094 C 136.023438 259.039062 137.730469 268.332031 139.4375 277.621094 C 172.0625 278.621094 197.074219 265.667969 201.671875 247.9375 C 202.613281 244.308594 203.222656 238.460938 200.316406 230.457031 Z M 200.316406 230.457031 " fill-opacity="1" fill-rule="nonzero"/><path fill="#ffffff" d="M 150.238281 256.976562 C 149.769531 245.527344 146.074219 221.597656 139.253906 190.488281 C 141.078125 188.625 142.210938 186.40625 142.65625 183.839844 C 138.351562 184.757812 134.082031 184.625 129.84375 183.4375 C 127.132812 182.640625 125.191406 181.539062 118.492188 179.421875 C 116.082031 178.660156 113.03125 177.757812 110.457031 179.21875 C 109.917969 179.523438 108.992188 180.050781 108.949219 180.828125 C 108.855469 182.457031 112.757812 183.414062 117.136719 185.925781 C 119.3125 187.179688 121.332031 188.648438 123.199219 190.332031 C 119.613281 217.449219 115.03125 282.21875 141.980469 276.84375 C 149.664062 274.191406 150.570312 265.136719 150.238281 256.976562 Z M 150.238281 256.976562 " fill-opacity="1" fill-rule="nonzero"/><path fill="#090817" d="M 122.515625 190.589844 C 114.984375 183.945312 108.140625 183.773438 108.308594 180.792969 C 108.371094 179.664062 109.523438 179.011719 110.140625 178.664062 C 113.027344 177.023438 116.4375 178.097656 118.691406 178.808594 C 125.351562 180.914062 127.402344 182.050781 130.03125 182.824219 C 134.167969 183.964844 138.335938 184.09375 142.539062 183.210938 C 142.640625 183.191406 142.742188 183.199219 142.84375 183.226562 C 142.945312 183.257812 143.03125 183.308594 143.109375 183.382812 C 143.183594 183.457031 143.238281 183.542969 143.269531 183.644531 C 143.304688 183.746094 143.3125 183.847656 143.296875 183.949219 C 142.84375 186.527344 141.734375 188.777344 139.960938 190.699219 C 146.195312 219.167969 150.375 244.535156 150.886719 256.957031 C 151.28125 266.664062 149.519531 272.652344 145.34375 275.800781 C 144.355469 276.535156 143.277344 277.097656 142.109375 277.484375 C 114.472656 282.992188 118.851562 218.597656 122.515625 190.589844 Z M 110.777344 179.785156 C 110.402344 179.996094 109.621094 180.441406 109.597656 180.867188 C 109.539062 181.859375 113.738281 183.230469 117.460938 185.367188 C 119.675781 186.644531 121.734375 188.140625 123.632812 189.855469 C 123.800781 190.007812 123.871094 190.195312 123.839844 190.417969 C 122.789062 198.367188 114.175781 268.296875 134.964844 275.859375 C 137.214844 276.621094 139.496094 276.742188 141.8125 276.222656 C 149.144531 273.660156 149.914062 264.765625 149.597656 257.003906 C 149.667969 257.003906 149.039062 238.128906 138.625 190.628906 C 138.574219 190.394531 138.632812 190.195312 138.804688 190.03125 C 140.300781 188.507812 141.308594 186.710938 141.828125 184.644531 C 137.730469 185.375 133.675781 185.179688 129.664062 184.0625 C 126.972656 183.269531 124.914062 182.132812 118.304688 180.039062 C 115.769531 179.238281 113.050781 178.492188 110.773438 179.785156 Z M 110.777344 179.785156 " fill-opacity="1" fill-rule="nonzero"/><path fill="#d10b05" d="M 201.824219 230.40625 C 201.824219 230.40625 218.546875 236.9375 227.742188 230.90625 C 229.019531 231.800781 230.417969 232.429688 231.9375 232.792969 C 234.023438 233.167969 242.882812 233.855469 245.875 242.410156 C 248.871094 250.96875 246.078125 297.964844 254.164062 321.472656 L 165.507812 321.472656 C 165.507812 321.472656 162.699219 257.378906 172.84375 242.410156 C 182.984375 227.441406 201.824219 230.40625 201.824219 230.40625 Z M 201.824219 230.40625 " fill-opacity="1" fill-rule="nonzero"/><path fill="#ffffff" d="M 220.09375 158.148438 C 217.378906 157.460938 214.621094 157.125 211.816406 157.132812 C 209.015625 157.144531 206.257812 157.503906 203.546875 158.210938 C 202.59375 157.894531 201.617188 157.707031 200.617188 157.648438 C 199.613281 157.589844 198.621094 157.660156 197.636719 157.863281 C 196.65625 158.066406 195.714844 158.390625 194.820312 158.84375 C 193.921875 159.292969 193.097656 159.851562 192.347656 160.515625 C 189.0625 163.386719 186.257812 166.671875 183.9375 170.367188 C 181.617188 174.0625 179.878906 178.011719 178.722656 182.222656 C 178.425781 182.105469 178.121094 182.019531 177.804688 181.972656 C 177.492188 181.921875 177.175781 181.910156 176.855469 181.929688 C 176.539062 181.949219 176.226562 182.003906 175.921875 182.09375 C 175.617188 182.183594 175.324219 182.308594 175.046875 182.460938 C 174.769531 182.617188 174.511719 182.800781 174.273438 183.011719 C 174.035156 183.222656 173.824219 183.457031 173.636719 183.714844 C 173.453125 183.976562 173.296875 184.25 173.171875 184.542969 C 173.046875 184.835938 172.957031 185.140625 172.898438 185.453125 C 172.84375 185.765625 172.820312 186.082031 172.832031 186.398438 C 172.84375 186.71875 172.890625 187.03125 172.972656 187.335938 C 173.054688 187.644531 173.167969 187.941406 173.316406 188.222656 C 173.464844 188.503906 173.640625 188.769531 173.84375 189.011719 C 174.050781 189.253906 174.28125 189.472656 174.535156 189.664062 C 174.789062 189.855469 175.058594 190.019531 175.347656 190.152344 C 175.636719 190.285156 175.9375 190.382812 176.25 190.449219 C 176.5625 190.511719 176.875 190.542969 177.195312 190.539062 C 176.496094 197.519531 176.9375 207.65625 183.597656 215.074219 C 189.761719 221.945312 200.117188 225.195312 211.433594 223.9375 C 212.449219 223.953125 213.457031 223.921875 214.46875 223.84375 C 215.480469 223.769531 216.484375 223.644531 217.484375 223.476562 C 218.480469 223.308594 219.472656 223.097656 220.449219 222.835938 C 221.429688 222.578125 222.394531 222.277344 223.347656 221.929688 C 224.300781 221.585938 225.234375 221.195312 226.152344 220.765625 C 227.066406 220.332031 227.964844 219.863281 228.835938 219.347656 C 229.710938 218.835938 230.558594 218.285156 231.382812 217.695312 C 232.207031 217.105469 233 216.480469 233.769531 215.816406 C 234.535156 215.15625 235.269531 214.457031 235.972656 213.730469 C 236.675781 213 237.34375 212.242188 237.980469 211.449219 C 238.613281 210.660156 239.210938 209.84375 239.769531 209 C 240.332031 208.15625 240.851562 207.289062 241.332031 206.394531 C 241.8125 205.503906 242.253906 204.59375 242.648438 203.660156 C 243.046875 202.730469 243.402344 201.78125 243.714844 200.816406 C 244.027344 199.851562 244.292969 198.878906 244.515625 197.890625 C 244.738281 196.902344 244.917969 195.90625 245.050781 194.898438 C 245.179688 193.894531 245.269531 192.886719 245.308594 191.875 C 245.347656 190.863281 245.34375 189.851562 245.292969 188.839844 C 245.238281 187.828125 245.140625 186.820312 245 185.816406 C 244.855469 184.8125 244.667969 183.820312 244.433594 182.835938 C 244.199219 181.847656 243.921875 180.875 243.601562 179.914062 C 243.277344 178.953125 242.914062 178.011719 242.503906 177.082031 C 242.097656 176.15625 241.648438 175.25 241.15625 174.363281 C 240.664062 173.476562 240.136719 172.613281 239.566406 171.777344 C 238.996094 170.9375 238.390625 170.128906 237.75 169.34375 C 237.105469 168.5625 236.429688 167.808594 235.71875 167.089844 C 235.003906 166.367188 234.261719 165.679688 233.488281 165.027344 C 232.714844 164.371094 231.914062 163.753906 231.082031 163.171875 C 230.253906 162.59375 229.398438 162.050781 228.519531 161.546875 C 227.640625 161.042969 226.738281 160.582031 225.816406 160.160156 C 224.898438 159.742188 223.957031 159.363281 223.003906 159.027344 C 222.046875 158.691406 221.078125 158.398438 220.09375 158.152344 Z M 220.09375 158.148438 " fill-opacity="1" fill-rule="nonzero"/><path fill="#090817" d="M 183.113281 215.503906 C 176.574219 208.21875 175.863281 198.363281 176.492188 191.144531 C 176.15625 191.101562 175.832031 191.023438 175.515625 190.914062 C 175.199219 190.804688 174.894531 190.664062 174.605469 190.492188 C 174.316406 190.320312 174.050781 190.121094 173.800781 189.894531 C 173.554688 189.667969 173.332031 189.417969 173.132812 189.148438 C 172.933594 188.875 172.765625 188.585938 172.628906 188.28125 C 172.488281 187.976562 172.382812 187.660156 172.308594 187.332031 C 172.234375 187.003906 172.191406 186.671875 172.183594 186.335938 C 172.179688 186 172.203125 185.667969 172.265625 185.339844 C 172.324219 185.007812 172.417969 184.6875 172.542969 184.375 C 172.671875 184.0625 172.828125 183.769531 173.011719 183.488281 C 173.199219 183.210938 173.410156 182.949219 173.648438 182.714844 C 173.886719 182.476562 174.144531 182.265625 174.425781 182.082031 C 174.707031 181.898438 175.003906 181.746094 175.316406 181.621094 C 175.628906 181.5 175.949219 181.40625 176.28125 181.347656 C 176.613281 181.292969 176.945312 181.265625 177.28125 181.277344 C 177.617188 181.285156 177.949219 181.328125 178.273438 181.40625 C 179.488281 177.269531 181.253906 173.382812 183.574219 169.75 C 185.894531 166.113281 188.675781 162.878906 191.917969 160.035156 C 192.699219 159.34375 193.554688 158.761719 194.488281 158.289062 C 195.417969 157.820312 196.394531 157.472656 197.414062 157.253906 C 198.433594 157.035156 199.46875 156.953125 200.507812 157 C 201.550781 157.046875 202.570312 157.226562 203.566406 157.539062 C 204.738281 157.242188 205.921875 157.007812 207.121094 156.835938 C 208.316406 156.664062 209.519531 156.558594 210.726562 156.515625 C 211.933594 156.472656 213.140625 156.492188 214.347656 156.578125 C 215.550781 156.664062 216.75 156.8125 217.9375 157.023438 C 219.128906 157.238281 220.304688 157.511719 221.464844 157.851562 C 222.625 158.1875 223.761719 158.585938 224.882812 159.046875 C 226 159.503906 227.089844 160.023438 228.152344 160.597656 C 229.214844 161.171875 230.246094 161.804688 231.242188 162.488281 C 232.238281 163.171875 233.191406 163.910156 234.109375 164.695312 C 235.027344 165.480469 235.902344 166.316406 236.730469 167.195312 C 237.558594 168.074219 238.339844 168.996094 239.070312 169.957031 C 239.800781 170.921875 240.476562 171.921875 241.101562 172.953125 C 241.726562 173.988281 242.292969 175.054688 242.804688 176.148438 C 243.316406 177.246094 243.765625 178.363281 244.15625 179.507812 C 244.550781 180.652344 244.878906 181.8125 245.148438 182.992188 C 245.414062 184.167969 245.621094 185.359375 245.761719 186.558594 C 245.902344 187.757812 245.980469 188.964844 245.992188 190.171875 C 246.007812 191.382812 245.957031 192.585938 245.839844 193.789062 C 245.726562 194.992188 245.546875 196.1875 245.304688 197.371094 C 245.0625 198.554688 244.757812 199.722656 244.390625 200.875 C 244.023438 202.027344 243.597656 203.15625 243.109375 204.261719 C 242.621094 205.367188 242.078125 206.445312 241.476562 207.492188 C 240.875 208.539062 240.21875 209.554688 239.507812 210.53125 C 238.800781 211.511719 238.039062 212.449219 237.230469 213.34375 C 236.421875 214.242188 235.566406 215.09375 234.667969 215.902344 C 233.765625 216.707031 232.824219 217.464844 231.84375 218.171875 C 230.863281 218.878906 229.847656 219.53125 228.800781 220.128906 C 227.75 220.726562 226.671875 221.265625 225.5625 221.75 C 224.453125 222.234375 223.324219 222.65625 222.171875 223.019531 C 221.019531 223.382812 219.851562 223.683594 218.664062 223.921875 C 217.480469 224.160156 216.285156 224.335938 215.082031 224.445312 C 213.878906 224.558594 212.671875 224.605469 211.464844 224.585938 C 201.027344 225.734375 189.917969 223.085938 183.113281 215.503906 Z M 177.140625 182.5625 C 176.65625 182.5625 176.1875 182.65625 175.738281 182.84375 C 175.289062 183.027344 174.894531 183.292969 174.550781 183.636719 C 174.207031 183.980469 173.941406 184.378906 173.753906 184.828125 C 173.566406 185.277344 173.476562 185.746094 173.476562 186.230469 C 173.476562 186.714844 173.566406 187.183594 173.753906 187.632812 C 173.941406 188.082031 174.207031 188.480469 174.550781 188.824219 C 174.894531 189.167969 175.289062 189.433594 175.738281 189.617188 C 176.1875 189.804688 176.65625 189.898438 177.140625 189.898438 C 177.335938 189.894531 177.503906 189.960938 177.640625 190.101562 C 177.777344 190.242188 177.84375 190.410156 177.839844 190.605469 C 177.136719 197.613281 177.644531 207.476562 184.078125 214.640625 C 190.050781 221.296875 200.246094 224.53125 211.363281 223.296875 C 211.4375 223.289062 211.550781 223.296875 211.984375 223.296875 C 213.144531 223.296875 214.300781 223.230469 215.453125 223.109375 C 216.605469 222.984375 217.75 222.800781 218.882812 222.554688 C 220.015625 222.308594 221.128906 222.003906 222.230469 221.636719 C 223.332031 221.273438 224.410156 220.851562 225.464844 220.375 C 226.523438 219.894531 227.550781 219.363281 228.546875 218.773438 C 229.546875 218.1875 230.511719 217.546875 231.445312 216.859375 C 232.375 216.167969 233.269531 215.429688 234.121094 214.644531 C 234.972656 213.859375 235.785156 213.03125 236.546875 212.160156 C 237.3125 211.289062 238.03125 210.382812 238.699219 209.433594 C 239.367188 208.488281 239.984375 207.507812 240.550781 206.496094 C 241.113281 205.484375 241.625 204.441406 242.078125 203.375 C 242.53125 202.308594 242.929688 201.222656 243.265625 200.113281 C 243.605469 199.003906 243.886719 197.882812 244.105469 196.742188 C 244.324219 195.605469 244.484375 194.457031 244.582031 193.304688 C 244.679688 192.148438 244.714844 190.992188 244.691406 189.832031 C 244.664062 188.671875 244.578125 187.519531 244.429688 186.367188 C 244.285156 185.21875 244.074219 184.082031 243.808594 182.953125 C 243.539062 181.824219 243.210938 180.714844 242.824219 179.621094 C 242.4375 178.527344 241.996094 177.460938 241.496094 176.414062 C 240.996094 175.367188 240.441406 174.351562 239.832031 173.363281 C 239.226562 172.375 238.566406 171.425781 237.859375 170.507812 C 237.148438 169.589844 236.394531 168.710938 235.589844 167.875 C 234.789062 167.039062 233.945312 166.246094 233.058594 165.5 C 232.171875 164.75 231.25 164.054688 230.289062 163.402344 C 229.328125 162.753906 228.335938 162.15625 227.3125 161.613281 C 226.289062 161.070312 225.238281 160.582031 224.164062 160.148438 C 223.089844 159.714844 221.992188 159.34375 220.878906 159.027344 C 219.761719 158.710938 218.632812 158.453125 217.492188 158.257812 C 216.347656 158.058594 215.199219 157.925781 214.042969 157.851562 C 212.886719 157.777344 211.726562 157.761719 210.570312 157.8125 C 209.410156 157.859375 208.257812 157.96875 207.113281 158.140625 C 205.964844 158.3125 204.832031 158.542969 203.710938 158.832031 C 203.585938 158.867188 203.464844 158.859375 203.34375 158.820312 C 202.445312 158.523438 201.523438 158.347656 200.578125 158.292969 C 199.632812 158.238281 198.695312 158.304688 197.769531 158.496094 C 196.839844 158.6875 195.953125 158.996094 195.105469 159.417969 C 194.261719 159.84375 193.484375 160.371094 192.777344 161 C 189.539062 163.828125 186.777344 167.066406 184.492188 170.707031 C 182.207031 174.347656 180.492188 178.242188 179.347656 182.386719 C 179.296875 182.574219 179.1875 182.710938 179.015625 182.796875 C 178.527344 183.039062 178.3125 182.5625 177.140625 182.5625 Z M 177.140625 182.5625 " fill-opacity="1" fill-rule="nonzero"/><path fill="#d10b05" d="M 183.007812 166.679688 C 183.007812 166.679688 185.777344 147.15625 205.476562 153.945312 C 210.753906 153.46875 215.964844 153.890625 221.097656 155.207031 C 225.664062 156.386719 237.035156 159.328125 244.257812 169.78125 C 253.117188 182.59375 249.292969 197.390625 248.277344 201.324219 C 246.941406 206.488281 244.148438 217.269531 234.214844 223.023438 C 224.238281 228.800781 208.851562 228.476562 203.625 220.511719 C 200.03125 215.035156 201.09375 205.726562 204.828125 203.632812 C 206.457031 202.722656 207.769531 203.640625 210.703125 202.277344 C 211.933594 201.707031 214.753906 200.398438 215.828125 197.308594 C 216.035156 196.703125 216.164062 196.082031 216.21875 195.441406 C 216.269531 194.804688 216.246094 194.171875 216.140625 193.539062 C 216.035156 192.90625 215.851562 192.300781 215.597656 191.714844 C 215.339844 191.128906 215.015625 190.582031 214.621094 190.078125 C 214.0625 189.378906 212.851562 187.867188 211.007812 187.664062 C 208.289062 187.367188 207.148438 190.226562 203.472656 190.226562 C 202.464844 190.226562 201.457031 190.226562 200.816406 189.5625 C 198.894531 187.570312 203.785156 183.09375 202.441406 179.480469 C 200.300781 173.71875 186.183594 176.273438 183.429688 169.433594 C 183.085938 168.546875 182.945312 167.628906 183.007812 166.679688 Z M 183.007812 166.679688 " fill-opacity="1" fill-rule="nonzero"/><path fill="#d10b05" d="M 222.039062 212.640625 C 222.039062 212.640625 226.667969 231.625 211.394531 246.09375 C 196.121094 260.558594 210.457031 311.792969 254.066406 291.296875 C 254.066406 291.296875 238.3125 280.75 242.832031 261.761719 C 247.351562 242.777344 231.367188 211.941406 231.367188 211.941406 Z M 222.039062 212.640625 " fill-opacity="1" fill-rule="nonzero"/><path fill="#d10b05" d="M 191.058594 194.617188 C 191.363281 194.71875 191.65625 194.84375 191.941406 194.984375 C 192.226562 195.125 192.496094 195.285156 192.75 195.457031 C 193.007812 195.632812 193.242188 195.820312 193.453125 196.019531 C 193.667969 196.222656 193.859375 196.429688 194.023438 196.648438 C 194.191406 196.867188 194.328125 197.09375 194.441406 197.320312 C 194.550781 197.550781 194.632812 197.777344 194.683594 198.007812 C 194.738281 198.238281 194.757812 198.464844 194.75 198.6875 C 194.738281 198.910156 194.699219 199.125 194.628906 199.332031 C 194.558594 199.535156 194.460938 199.730469 194.332031 199.914062 C 194.203125 200.09375 194.050781 200.261719 193.871094 200.410156 C 193.6875 200.5625 193.484375 200.695312 193.257812 200.808594 C 193.027344 200.921875 192.78125 201.015625 192.519531 201.089844 C 192.253906 201.160156 191.976562 201.210938 191.683594 201.242188 C 191.390625 201.269531 191.089844 201.273438 190.78125 201.257812 C 190.472656 201.242188 190.164062 201.203125 189.851562 201.140625 C 189.539062 201.082031 189.230469 201 188.925781 200.894531 C 188.621094 200.792969 188.328125 200.667969 188.042969 200.527344 C 187.757812 200.386719 187.488281 200.226562 187.234375 200.054688 C 186.980469 199.878906 186.746094 199.691406 186.53125 199.492188 C 186.316406 199.289062 186.125 199.082031 185.960938 198.863281 C 185.792969 198.644531 185.65625 198.417969 185.542969 198.191406 C 185.433594 197.960938 185.351562 197.734375 185.300781 197.503906 C 185.25 197.273438 185.226562 197.046875 185.234375 196.824219 C 185.246094 196.601562 185.285156 196.386719 185.355469 196.179688 C 185.425781 195.976562 185.523438 195.78125 185.652344 195.597656 C 185.78125 195.417969 185.933594 195.25 186.117188 195.101562 C 186.296875 194.949219 186.5 194.816406 186.730469 194.703125 C 186.957031 194.589844 187.203125 194.496094 187.464844 194.421875 C 187.730469 194.351562 188.011719 194.300781 188.300781 194.269531 C 188.59375 194.242188 188.894531 194.238281 189.203125 194.253906 C 189.511719 194.269531 189.820312 194.308594 190.132812 194.371094 C 190.445312 194.429688 190.753906 194.511719 191.058594 194.617188 Z M 191.058594 194.617188 " fill-opacity="1" fill-rule="nonzero"/><path fill="#d10b05" d="M 206.292969 200.863281 C 205.988281 200.863281 205.785156 200.722656 205.683594 200.433594 C 205.582031 200.148438 205.648438 199.90625 205.886719 199.714844 C 207.351562 198.527344 208.066406 197.324219 208.011719 196.136719 C 207.921875 194.265625 205.957031 192.933594 205.9375 192.921875 C 205.8125 192.839844 205.726562 192.726562 205.679688 192.589844 C 205.632812 192.449219 205.636719 192.308594 205.683594 192.171875 C 205.730469 192.03125 205.816406 191.921875 205.941406 191.839844 C 206.066406 191.761719 206.199219 191.726562 206.347656 191.738281 L 213.480469 192.339844 C 213.65625 192.355469 213.804688 192.433594 213.917969 192.570312 C 214.035156 192.703125 214.082031 192.863281 214.070312 193.039062 C 214.054688 193.21875 213.980469 193.363281 213.84375 193.480469 C 213.707031 193.597656 213.550781 193.644531 213.371094 193.628906 L 208.089844 193.183594 C 209.929688 195.425781 209.84375 198.167969 206.699219 200.71875 C 206.582031 200.816406 206.445312 200.863281 206.292969 200.863281 Z M 206.292969 200.863281 " fill-opacity="1" fill-rule="nonzero"/><path fill="#ffffff" d="M 247.011719 250.886719 C 246.828125 250.886719 246.671875 250.820312 246.542969 250.683594 C 246.414062 250.550781 246.355469 250.390625 246.367188 250.203125 C 246.917969 240.4375 241.546875 237.523438 241.316406 237.40625 C 241.160156 237.320312 241.058594 237.195312 241.007812 237.027344 C 240.953125 236.859375 240.96875 236.699219 241.046875 236.542969 C 241.128906 236.386719 241.253906 236.277344 241.417969 236.222656 C 241.585938 236.167969 241.746094 236.179688 241.90625 236.257812 C 242.164062 236.386719 248.257812 239.625 247.65625 250.277344 C 247.644531 250.449219 247.578125 250.589844 247.453125 250.710938 C 247.332031 250.828125 247.183594 250.886719 247.011719 250.886719 Z M 247.011719 250.886719 " fill-opacity="1" fill-rule="nonzero"/><path fill="#ffffff" d="M 165.988281 275.746094 C 165.820312 275.746094 165.675781 275.6875 165.550781 275.578125 C 165.429688 275.464844 165.359375 275.324219 165.34375 275.15625 C 165.328125 274.992188 165.371094 274.839844 165.472656 274.707031 C 165.574219 274.574219 165.707031 274.496094 165.871094 274.464844 C 166.117188 274.417969 190.480469 269.789062 197.78125 255.476562 C 197.863281 255.324219 197.992188 255.222656 198.15625 255.171875 C 198.324219 255.121094 198.484375 255.132812 198.640625 255.214844 C 198.796875 255.292969 198.902344 255.414062 198.957031 255.578125 C 199.015625 255.746094 199.003906 255.90625 198.929688 256.0625 C 194.949219 263.867188 186.21875 268.804688 179.59375 271.570312 C 173.390625 274.160156 166.550781 275.746094 165.988281 275.746094 Z M 165.988281 275.746094 " fill-opacity="1" fill-rule="nonzero"/><path fill="#ffffff" d="M 188.230469 167.210938 C 188.050781 167.210938 187.898438 167.148438 187.773438 167.019531 C 187.644531 166.894531 187.582031 166.742188 187.582031 166.566406 C 187.582031 162.632812 189.597656 159.34375 193.414062 157.050781 C 195.199219 155.988281 197.109375 155.230469 199.136719 154.78125 C 199.3125 154.746094 199.476562 154.777344 199.621094 154.878906 C 199.769531 154.980469 199.859375 155.117188 199.894531 155.292969 C 199.929688 155.464844 199.894531 155.628906 199.796875 155.773438 C 199.695312 155.921875 199.558594 156.015625 199.382812 156.046875 C 197.492188 156.476562 195.714844 157.1875 194.046875 158.179688 C 190.613281 160.253906 188.875 163.078125 188.875 166.570312 C 188.871094 166.746094 188.808594 166.898438 188.683594 167.023438 C 188.558594 167.148438 188.40625 167.210938 188.230469 167.210938 Z M 188.230469 167.210938 " fill-opacity="1" fill-rule="nonzero"/><path fill="#ffffff" d="M 204.234375 174.8125 C 204.117188 174.8125 204.011719 174.785156 203.914062 174.730469 C 199 171.929688 196.382812 168.90625 196.136719 165.734375 C 195.859375 162.15625 198.734375 159.828125 198.859375 159.730469 C 199 159.625 199.15625 159.582031 199.328125 159.601562 C 199.503906 159.625 199.648438 159.703125 199.757812 159.84375 C 199.867188 159.980469 199.910156 160.136719 199.894531 160.3125 C 199.875 160.484375 199.796875 160.628906 199.664062 160.742188 C 199.632812 160.765625 197.195312 162.761719 197.425781 165.648438 C 197.640625 168.359375 200.039062 171.035156 204.554688 173.605469 C 204.679688 173.679688 204.773438 173.78125 204.828125 173.917969 C 204.886719 174.054688 204.894531 174.191406 204.859375 174.332031 C 204.820312 174.476562 204.742188 174.589844 204.628906 174.679688 C 204.511719 174.769531 204.378906 174.8125 204.234375 174.8125 Z M 204.234375 174.8125 " fill-opacity="1" fill-rule="nonzero"/><path fill="#ffffff" d="M 236.78125 214.375 C 236.476562 214.375 236.273438 214.230469 236.171875 213.941406 C 236.070312 213.652344 236.140625 213.410156 236.382812 213.222656 C 250.328125 202.265625 242.125 179.929688 242.039062 179.703125 C 241.980469 179.539062 241.988281 179.375 242.0625 179.214844 C 242.136719 179.054688 242.253906 178.941406 242.417969 178.878906 C 242.585938 178.820312 242.746094 178.824219 242.910156 178.894531 C 243.070312 178.964844 243.183594 179.082031 243.25 179.246094 C 243.335938 179.480469 251.875 202.691406 237.179688 214.238281 C 237.0625 214.332031 236.929688 214.375 236.78125 214.375 Z M 236.78125 214.375 " fill-opacity="1" fill-rule="nonzero"/><path fill="#ffffff" d="M 220.210938 283.339844 C 220.117188 283.339844 220.023438 283.316406 219.9375 283.277344 C 214.949219 280.9375 211.398438 276.238281 209.941406 270.046875 C 208.34375 263.265625 209.570312 255.582031 212.917969 251.347656 C 216.414062 246.859375 219.160156 241.949219 221.152344 236.621094 C 221.207031 236.449219 221.316406 236.328125 221.476562 236.25 C 221.636719 236.167969 221.800781 236.160156 221.96875 236.214844 C 222.140625 236.273438 222.261719 236.382812 222.34375 236.542969 C 222.421875 236.703125 222.433594 236.867188 222.375 237.035156 C 220.347656 242.515625 217.535156 247.554688 213.933594 252.15625 C 208.25 259.332031 209.136719 276.789062 220.488281 282.109375 C 220.625 282.175781 220.726562 282.273438 220.792969 282.410156 C 220.859375 282.546875 220.875 282.6875 220.84375 282.835938 C 220.808594 282.984375 220.734375 283.105469 220.617188 283.199219 C 220.496094 283.292969 220.363281 283.339844 220.210938 283.339844 Z M 220.210938 283.339844 " fill-opacity="1" fill-rule="nonzero"/><path fill="#ffffff" d="M 232.792969 285.511719 C 226.746094 283.285156 222.691406 279.789062 220.738281 275.117188 C 217.589844 267.59375 221.027344 259.820312 221.175781 259.492188 C 221.25 259.335938 221.371094 259.226562 221.535156 259.167969 C 221.699219 259.109375 221.863281 259.113281 222.023438 259.1875 C 222.179688 259.257812 222.292969 259.375 222.355469 259.539062 C 222.421875 259.703125 222.417969 259.863281 222.351562 260.023438 C 222.316406 260.101562 218.996094 267.628906 221.933594 274.628906 C 223.746094 278.945312 227.550781 282.199219 233.238281 284.296875 C 233.40625 284.359375 233.527344 284.46875 233.601562 284.632812 C 233.675781 284.792969 233.683594 284.957031 233.621094 285.125 C 233.558594 285.292969 233.445312 285.414062 233.285156 285.488281 C 233.125 285.566406 232.960938 285.570312 232.792969 285.511719 Z M 232.792969 285.511719 " fill-opacity="1" fill-rule="nonzero"/></svg>