<svg width="20" height="20" viewBox="0 0 20 20" fill="none" xmlns="http://www.w3.org/2000/svg">
<g clip-path="url(#clip0_534_6177)">
<path d="M13.1306 5.93281C13.1306 6.11823 13.0756 6.29949 12.9726 6.45366C12.8696 6.60783 12.7232 6.72799 12.5519 6.79895C12.3806 6.86991 12.1921 6.88847 12.0102 6.8523C11.8283 6.81612 11.6613 6.72684 11.5302 6.59572C11.3991 6.46461 11.3098 6.29757 11.2736 6.11571C11.2374 5.93385 11.256 5.74535 11.327 5.57405C11.3979 5.40274 11.5181 5.25632 11.6723 5.15331C11.8264 5.0503 12.0077 4.99531 12.1931 4.99531C12.4417 4.99531 12.6802 5.09408 12.856 5.2699C13.0318 5.44571 13.1306 5.68417 13.1306 5.93281ZM16.2454 12.2609C14.6236 14.3211 12.0384 15.4438 8.55717 15.6023L6.83842 19.6195C6.7903 19.7327 6.70985 19.8292 6.60715 19.8969C6.50445 19.9646 6.38407 20.0004 6.26107 20H6.22123C6.09244 19.9919 5.9693 19.9442 5.86873 19.8633C5.76815 19.7825 5.69507 19.6725 5.65951 19.5484L4.50248 15.4977L0.454041 14.3383C0.329643 14.3033 0.219133 14.2307 0.137718 14.1304C0.0563042 14.03 0.00798896 13.9069 -0.000577626 13.778C-0.00914421 13.6491 0.022459 13.5207 0.0898823 13.4104C0.157306 13.3002 0.257235 13.2136 0.375916 13.1625L4.39388 11.4437C4.55013 7.96172 5.67592 5.37656 7.73685 3.75547C11.1126 1.09922 15.9329 1.97187 16.865 2.17344C17.0998 2.22417 17.315 2.34149 17.4849 2.51136C17.6547 2.68122 17.7721 2.89644 17.8228 3.13125C18.029 4.0625 18.9025 8.8875 16.2454 12.2656V12.2609ZM12.6259 13.4852C11.9034 13.2099 11.2742 12.7347 10.8118 12.1151C10.3495 11.4954 10.0731 10.7569 10.015 9.98594C9.24419 9.92795 8.50584 9.65169 7.8863 9.18945C7.26677 8.72722 6.79165 8.09814 6.51654 7.37578C5.96967 8.61484 5.67592 10.1187 5.63373 11.8773C5.63081 11.9971 5.59355 12.1135 5.52637 12.2126C5.4592 12.3118 5.36494 12.3896 5.25482 12.4367L2.48842 13.6203L5.1806 14.3914C5.28263 14.4206 5.37554 14.4753 5.45058 14.5503C5.52561 14.6254 5.58031 14.7183 5.60951 14.8203L6.37826 17.5125L7.5642 14.7461C7.61149 14.6356 7.68963 14.5411 7.78926 14.4739C7.88888 14.4067 8.00577 14.3697 8.12592 14.3672C9.88217 14.3258 11.3861 14.0305 12.6259 13.4852ZM16.6048 3.39609C15.7689 3.21484 11.4486 2.42812 8.51342 4.73828C8.14346 5.02985 7.80726 5.36186 7.51107 5.72812C7.48108 6.13651 7.54064 6.54653 7.68557 6.92951C7.8305 7.3125 8.05731 7.65921 8.35015 7.94544C8.643 8.23166 8.99481 8.45048 9.38101 8.58662C9.76721 8.72275 10.1785 8.77291 10.5861 8.73359C10.6777 8.7249 10.7701 8.73655 10.8567 8.76771C10.9433 8.79887 11.022 8.84877 11.0871 8.91386C11.1521 8.97894 11.202 9.05759 11.2332 9.14419C11.2644 9.2308 11.276 9.32322 11.2673 9.41484C11.228 9.82258 11.2782 10.234 11.4144 10.6203C11.5506 11.0066 11.7696 11.3585 12.056 11.6514C12.3424 11.9443 12.6893 12.1711 13.0725 12.3159C13.4557 12.4607 13.8658 12.5201 14.2744 12.4898C14.6401 12.1942 14.9716 11.8585 15.2626 11.4891C17.5728 8.55391 16.7861 4.23281 16.6048 3.39609Z" fill="#F91710"/>
</g>
<defs>
<clipPath id="clip0_534_6177">
<rect width="20" height="20" fill="white"/>
</clipPath>
</defs>
</svg>
