<svg width="20" height="20" viewBox="0 0 20 20" fill="none" xmlns="http://www.w3.org/2000/svg">
<path d="M9.63672 10.1562C9.63672 10.4049 9.53795 10.6433 9.36213 10.8192C9.18632 10.995 8.94786 11.0938 8.69922 11.0938C8.45058 11.0938 8.21212 10.995 8.03631 10.8192C7.86049 10.6433 7.76172 10.4049 7.76172 10.1562C7.76172 9.90761 7.86049 9.66915 8.03631 9.49334C8.21212 9.31752 8.45058 9.21875 8.69922 9.21875C8.94786 9.21875 9.18632 9.31752 9.36213 9.49334C9.53795 9.66915 9.63672 9.90761 9.63672 10.1562Z" fill="#F91710"/>
<path d="M13.2432 1.25C15.3282 1.29812 16.3495 3.77125 15.037 5.31375C16.2216 6.27316 17.0295 7.62002 17.3182 9.11687L18.972 16.5325C19.0076 16.6937 19.0226 16.8575 19.0301 17L19.0307 17.0156V17.0312C19.0313 17.4957 18.8938 17.9498 18.6357 18.3359C18.3776 18.722 18.0105 19.0227 17.5812 19.1997C17.1518 19.3768 16.6795 19.4222 16.2243 19.3302C15.769 19.2382 15.3514 19.013 15.0245 18.6831C14.8065 18.9022 14.5475 19.076 14.2622 19.1948C13.9769 19.3135 13.671 19.3747 13.362 19.375C13.0529 19.3753 12.7468 19.3143 12.4614 19.1956C12.1761 19.0768 11.9171 18.9026 11.6995 18.6831C11.4815 18.9022 11.2225 19.076 10.9372 19.1948C10.6519 19.3135 10.346 19.3747 10.037 19.375C9.72784 19.3752 9.42173 19.3142 9.13636 19.1953C8.85099 19.0764 8.59203 18.9021 8.37448 18.6825C8.15492 18.9047 7.89296 19.0805 7.60415 19.1994C7.31534 19.3184 7.00556 19.3781 6.69323 19.375C5.50948 19.3669 4.56323 18.475 4.39448 17.3575C4.2239 17.4513 4.03229 17.5004 3.8376 17.5C3.01448 17.5 2.45885 16.6625 2.76885 15.8975L3.3251 14.5687C3.39573 14.4012 3.50385 14.2569 3.6376 14.1456C2.93135 13.9569 2.2451 13.6169 1.64323 13.0094C1.32698 12.6925 1.21948 12.3256 1.26635 11.9525C1.2976 11.7056 1.40448 11.4494 1.4751 11.2806L1.50635 11.2044L1.51635 11.1794L1.52885 11.1562C1.92073 10.3787 2.39385 9.75187 2.98323 9.29187C3.48138 8.90427 4.0623 8.63691 4.68073 8.51062C4.69323 8.47125 4.70635 8.43125 4.7201 8.39188C4.51152 8.04829 4.39267 7.65778 4.37448 7.25625C4.35004 6.71674 4.50649 6.18453 4.819 5.74407C5.13151 5.30361 5.58218 4.98014 6.09948 4.825C6.30573 4.7625 6.44323 4.575 6.44323 4.3625V4.35625C6.44323 3.01875 7.52448 1.9375 8.86198 1.9375C9.21198 1.9375 9.54323 2.0125 9.84323 2.14375C10.3182 2.35625 10.8807 2.275 11.2807 1.9375C11.8068 1.49732 12.4698 1.25421 13.1557 1.25H13.2432ZM4.36823 12.1875H2.59073C3.09448 12.67 3.68885 12.91 4.36823 13.0269V12.1875ZM4.36823 11.5625V10.5375C4.36823 10.3231 4.37823 10.1106 4.39823 9.90063C4.16692 9.99612 3.94971 10.1227 3.7526 10.2769C3.37823 10.5694 3.0376 10.985 2.72635 11.5625H4.36823ZM16.092 9.36063C15.8569 8.1289 15.1857 7.02318 14.2015 6.24624C13.2172 5.4693 11.9859 5.07322 10.7332 5.13062C7.87073 5.25375 5.61823 7.65688 5.61823 10.5375V17C5.61823 17.6219 6.11198 18.1213 6.70385 18.125H6.70635C6.88483 18.1258 7.06083 18.0831 7.21907 18.0006C7.37732 17.918 7.51304 17.7981 7.61448 17.6513L7.61573 17.6494C7.9826 17.1369 8.76323 17.1119 9.1376 17.6556C9.3401 17.9419 9.66635 18.125 10.037 18.125C10.214 18.1241 10.3883 18.0807 10.5452 17.9985C10.702 17.9163 10.8368 17.7976 10.9382 17.6525L10.9407 17.6494C11.307 17.1369 12.0882 17.1119 12.4626 17.6556C12.6651 17.9419 12.9914 18.125 13.362 18.125C13.5391 18.1241 13.7133 18.0807 13.8702 17.9985C14.027 17.9163 14.1618 17.7976 14.2632 17.6525L14.2657 17.6494C14.632 17.1369 15.4132 17.1119 15.7876 17.6556C15.9901 17.9419 16.3164 18.125 16.687 18.125C17.287 18.125 17.7726 17.6438 17.7807 17.0456C17.7774 16.9648 17.7678 16.8843 17.752 16.805L16.0939 9.37062L16.092 9.36063Z" fill="#F91710"/>
</svg>
