<svg width="20" height="20" viewBox="0 0 20 20" fill="none" xmlns="http://www.w3.org/2000/svg">
<g clip-path="url(#clip0_534_6179)">
<path fill-rule="evenodd" clip-rule="evenodd" d="M6.37602 3.65167C6.39768 3.64583 6.64518 3.595 7.09352 4.15417C7.52185 4.68833 7.98185 5.62 8.35268 7.00417C8.62518 8.02083 8.80102 9.1 8.86602 10.0625C8.88061 10.2799 8.97975 10.4829 9.14222 10.6281C9.30468 10.7733 9.51753 10.849 9.73518 10.8392C9.91121 10.8313 10.0875 10.8313 10.2635 10.8392C10.481 10.849 10.6938 10.7734 10.8562 10.6284C11.0186 10.4834 11.1179 10.2806 11.1327 10.0633C11.1977 9.1 11.3735 8.02 11.646 7.00417C12.0168 5.62 12.4768 4.68833 12.9043 4.15417C13.3543 3.595 13.601 3.64583 13.6227 3.65167C13.6443 3.65667 13.8835 3.73667 13.9927 4.44583C14.096 5.1225 14.0294 6.15917 13.6585 7.54333C13.3803 8.57766 13.0013 9.5822 12.5268 10.5425C12.4352 10.7257 12.4143 10.9363 12.4681 11.134C12.5219 11.3317 12.6467 11.5026 12.8185 11.6142C13.706 12.1908 14.166 12.9708 14.166 13.75C14.166 14.4642 13.7818 15.175 13.0352 15.735C12.2877 16.295 11.216 16.6667 9.99935 16.6667C8.78185 16.6667 7.71102 16.2958 6.96352 15.735C6.21685 15.175 5.83268 14.4642 5.83268 13.75C5.83268 12.9708 6.29268 12.1908 7.18018 11.6142C7.35203 11.5026 7.47677 11.3317 7.53057 11.134C7.58437 10.9363 7.56347 10.7257 7.47185 10.5425C6.99736 9.58194 6.61832 8.57712 6.34018 7.5425C5.96935 6.15917 5.90268 5.1225 6.00685 4.44583C6.11518 3.7375 6.35435 3.65667 6.37602 3.65167ZM9.96268 6.5725C9.55935 5.06667 9.02102 3.89333 8.39435 3.11167C7.78768 2.35583 6.92352 1.77917 5.94435 2.04167C4.96602 2.30333 4.50602 3.235 4.35852 4.19333C4.20685 5.18333 4.32685 6.46833 4.73102 7.97417C4.97831 8.892 5.29678 9.78916 5.68352 10.6575C4.77268 11.4425 4.16602 12.5167 4.16602 13.75C4.16602 15.1067 4.90102 16.2717 5.96352 17.0683C7.02602 17.865 8.45518 18.3333 9.99935 18.3333C11.5427 18.3333 12.9727 17.865 14.0352 17.0683C15.0977 16.2717 15.8327 15.1067 15.8327 13.75C15.8327 12.515 15.226 11.4425 14.316 10.6583C14.7025 9.78998 15.0207 8.89282 15.2677 7.975C15.6719 6.46917 15.7918 5.18333 15.6402 4.19333C15.4927 3.235 15.0327 2.30333 14.0543 2.04167C13.0752 1.77917 12.211 2.35583 11.6043 3.11167C10.9777 3.89333 10.4393 5.06667 10.036 6.5725L9.99935 6.71167C9.98731 6.66523 9.97509 6.61884 9.96268 6.5725ZM8.81852 14.1608C8.75311 13.9725 8.73371 13.7712 8.76194 13.5738C8.79016 13.3765 8.86519 13.1887 8.98076 13.0262C9.09633 12.8638 9.24909 12.7313 9.42628 12.6399C9.60348 12.5485 9.79997 12.5008 9.99935 12.5008C10.1987 12.5008 10.3952 12.5485 10.5724 12.6399C10.7496 12.7313 10.9024 12.8638 11.0179 13.0262C11.1335 13.1887 11.2085 13.3765 11.2368 13.5738C11.265 13.7712 11.2456 13.9725 11.1802 14.1608C11.203 14.1647 11.2262 14.1666 11.2493 14.1667C11.4704 14.1667 11.6823 14.2545 11.8386 14.4107C11.9949 14.567 12.0827 14.779 12.0827 15C12.0827 15.221 11.9949 15.433 11.8386 15.5893C11.6823 15.7455 11.4704 15.8333 11.2493 15.8333C10.7985 15.8339 10.3597 15.6877 9.99935 15.4167C9.63902 15.6877 9.20022 15.8339 8.74935 15.8333C8.52834 15.8333 8.31637 15.7455 8.16009 15.5893C8.00381 15.433 7.91602 15.221 7.91602 15C7.91602 14.779 8.00381 14.567 8.16009 14.4107C8.31637 14.2545 8.52834 14.1667 8.74935 14.1667C8.77253 14.1666 8.79566 14.1647 8.81852 14.1608Z" fill="#F91710"/>
</g>
<defs>
<clipPath id="clip0_534_6179">
<rect width="20" height="20" fill="white"/>
</clipPath>
</defs>
</svg>
